<svg fill="#ffffff" version="1.1" id="Ebene_1" xmlns="http://www.w3.org/2000/svg" xmlns:xlink="http://www.w3.org/1999/xlink" x="0px" y="0px"
	 viewBox="0 0 580.5 100" style="enable-background:new 0 0 580.5 100;" xml:space="preserve">
<style type="text/css">
</style>
<g>
	<path d="M397.2,30.8c-3.5,0.1-6.1-2.8-6.1-6c0-3.3,2.6-6.2,6.6-6.1c2.8,0.1,5.8,2.7,5.6,6.4
		C403.1,28.1,400.5,31,397.2,30.8"/>
	<path d="M375,18.8c3.2-0.2,6.1,2.8,6.1,6.2c-0.1,2.9-2.7,6.2-6.5,5.9c-3.1-0.2-5.7-2.8-5.7-6.1
		C368.9,21.6,371.6,18.7,375,18.8"/>
	<path d="M518.7,78.4c-1.7,0-2.1,2-2.7,3.2c-2.6,5.2-8.3,8.4-14.1,7.5c-6.3-1-9.9-6.5-11-12.4
		c-1.2-6.2-0.7-13.5-0.7-13.7h24.1c4.1,0,6.1-2,5.6-5.3c-0.8-5.4-3.2-10.5-6.8-13.9c-12.5-12.1-28.5-5.7-34.5,6.1
		c-4.5,8.7-4.9,20.6-1.7,29.8c4.1,11.7,15.5,19.8,28.1,17.4c11.7-2.2,15.6-14.9,15.6-16.7C520.7,79.3,519.8,78.4,518.7,78.4z
		 M493,46.4c4.3-5.2,10.7-4.5,13.7-0.7c2.9,3.7,2.8,11.2,2.8,13.1h-19.2C490.2,56.5,490.3,49.7,493,46.4z"/>
	<path d="M102.1,47.4c-0.3-4.9-3.9-8.9-8.7-10c-5.7-1.2-10.1,2.1-13,6.7c-0.5,0.9-1,1.8-1.6,2.6h-0.1v-8.4v-0.8H59.8
		c-1.1,0-2,0.9-2,2s0.9,2,2,2h5.1V92h-8.1c-0.3,0-0.7,0-1,0c-1.4,0-2.3-1.7-2.5-2.1c-1.5-2.5-2.6-4.3-4.1-6.8
		c-4.6-7.5-9.2-15-13.9-22.4c-1.1-1.8-2.2-3.5-3.1-5.4c-0.2-0.3-0.3-0.6,0-0.9s0.6-0.6,0.8-1c3.1-3.6,6.1-7.2,9-10.9
		c0.5-0.7,1-1.1,2.1-1.1s4.2,0,4.2,0c1.1,0,1.9-0.9,1.9-2s-0.9-2-2-2H33.7c-1.1,0-1.9,0.9-1.9,2s0.9,2,2,2c0,0,2.1,0,3.6,0L21.4,60
		V0H2C0.9,0,0,0.9,0,2c0,1.1,0.9,2,2,2c2.1,0,2.5,0,4.5,0c0.9,0,0.9,0,0.9,0.8c0,29.3,0,57.9,0,87.2H2.2c0,0,0,0-0.1,0
		c-1.1,0-2,0.9-2,2s0.9,2,2,2c0,0,24.2,0,24.3,0c1.1,0,2-0.9,2-2s-0.9-2-2-2h-4.9V67c5.2,8.4,10.3,16.7,15.5,25.1h-4.8
		c-1.1,0-2,0.9-2,2s0.9,2,2,2h56.9c1.1,0,2-0.9,2-2s-0.9-2-2-2H78.9c0,0,0-0.1,0-0.2c0-9.4,0-20.4,0-31.5c0-2,0.1-3.9,0.5-5.9
		c0.6-3,1.6-5.8,3.3-8.4c0.9-1.4,2.5-3.7,4.2-3.5c4.8,0.3-1.8,15.3,9.1,15.1C101.7,57.6,102.4,52.8,102.1,47.4z"/>
	<path d="M392.9,33.7"/>
	<path d="M356,41c-2.1-2.7-5.4-4.1-8.8-3.9c-2.1,0.1-4.2,0.8-5.9,2c-1.8,1.3-3.2,3.1-4.4,5c-0.5,0.9-1,1.7-1.6,2.6h-0.1
		v-5.2l0,0v-4l0,0l0,0h-0.1h-19c-1.1,0-2,0.9-2,2s0.9,2,2,2h5.2l0,0V92h-3.7c-1.1,0-2,0.9-2,2s0.9,2,2,2l0,0h28.1h0.1
		c1.1,0,1.9-0.9,1.9-2s-0.9-2-2-2h-10.1V60.3c0-2,0.1-3.9,0.5-5.9c0.6-3,1.6-5.8,3.3-8.4c0.9-1.4,2.5-3.6,4.2-3.5
		c4.8,0.4-1.9,15.3,9.1,15.2c1.5,0,3-0.4,4-1.4c1-0.9,1.5-2.3,1.8-3.6C359.1,48.7,358.5,44.2,356,41z"/>
	<path d="M578.5,92h-5.2c0-0.1,0-0.1,0-0.1c0-9.1,0.2-18.2,0.1-27.2c-0.1-7.5,0.9-16.6-4.5-22.6
		c-0.8-0.8-1.6-1.6-2.6-2.2c-3.2-2.1-11-3.8-16.6-0.4c-3.9,2.4-7.4,5.7-8.2,6.9v-8.7l0,0l0,0h-19.2c-1.1,0-2,0.9-2,2s0.9,2,2,2h5.2
		v50.5h-5.1c0,0,0,0-0.1,0c0,0,0,0-0.1,0c-1.1,0-1.9,0.9-2,2s0.9,2,1.9,2h24.4c1.1,0,2-0.9,2-2s-0.9-2-2-2h-5v-0.1
		c-0.1-0.3,0-0.8,0-1.1c0-6.8,0-13.7,0-20.5c0-3.3,0-6.6,0-9.9c0-1.2-0.1-2.4,0.1-3.7c0.4-2.4,1.7-4.9,3.1-6.9
		c2.5-3.8,8-8.7,12.3-4.2c1.7,1.8,2.2,4.6,2.2,7.1c0.1,13.8,0,25.4,0,39.2h-5l0,0c-1.1,0-2,0.9-2,2s0.9,2,2,2h24.3c1.1,0,2-0.9,2-2
		C580.5,92.9,579.6,92,578.5,92z"/>
	<path d="M318.8,56.3c0.2-2.2-7.4-5.6-13.8-1.1c-0.6,0.5-1.1,1-1.6,1.6c-0.8-1.9-2.1-3.6-3.1-4.5
		c-1.5-1.4-3.3-2.5-5.4-3.1c-2-0.6-4.3-0.7-6.5,0s-3.9,2.3-5,4c-1.2,1.7-1.8,4.1-1.3,6.4c0.5,2.2,1.8,4,3.5,5.3
		c0.8,0.6,1.8,1.1,2.9,1.4s2.3,0.4,3.6-0.3c0.6-0.3,0.9-1,0.6-1.7c-0.3-0.7-1-1-1.7-0.7l-0.2,0.1c-1,0.2-2.2-0.3-3.2-1.2
		c-1.1-0.9-1.9-2.2-2-3.5c-0.2-1.3,0.2-2.5,1.1-3.6c0.8-1.2,1.9-2,3.2-2.4c2.4-0.8,5.5,0.4,7.6,2.5c1,1.1,1.8,2.2,2.1,3.5
		c0.5,1.5,0.7,3,0.7,4.5c0,6.2-4.4,12-9,16.8c-7.8-8.7-14.3-20-17.2-24.6c11.2-7.5,16.7-15.2,16.7-23c0-9.8-9.8-14.9-18.2-14.9
		c-9.7,0-18.9,8-18.9,18.1c0,2,0.4,4.3,1.1,6.8s2.8,6.6,6.2,12.3c-6.9,2.7-14.2,7.8-16.9,15.1c-1.2,3.3-1.2,6.8-1.4,10.2
		c-0.1,3.2-1.2,6.5-2.8,9.3c-1.1,2-2.5,3.7-5,4.1c-1.3,0.2-3.1-0.3-3.9-1.5c-1.1-1.7-1.4-3.6-1.4-5.5c0-9.8,0-19.5,0-29.3
		c0-5.3,0-10.6,0-15.9h10.1c1.1,0,2-0.9,2-2s-0.9-2-1.9-2h-10.2V20.8h-14.1v16.7h-5.1h-0.1c-1,0.1-1.9,0.9-1.9,2s0.8,1.9,1.9,2h0.1
		c1.7,0,3.4,0,5.1,0c-0.1,0.1,0.3,37.1-0.4,40.3c-0.3,1.3-0.7,2.6-1.3,3.9c-1.5,3.2-4,6.4-7.7,6.8c-2.8,0.3-5.6-2-5.8-4.9v-50h-19.2
		c-1.1,0-2,0.9-2,2s0.9,2,2,2h5.2c0,0,0,22.3,0,32.9c0,1.9-0.2,3.9-0.5,5.7c-0.5,3.3-2,6.1-4.7,8.3c-3.8,3-11.1,1.1-11.1-6.7
		c0-11.2,0-31.7,0-40.2l0,0v-4h-19.2c-1.1,0-2,0.9-2,2s0.9,2,2,2h5.1l0,0c0,7.6,0,15.1,0,22.7c0,3.8,0,7.6,0,11.4
		c0,3.6,0.2,7.3-1.4,10.7c-1,2.1-2.4,4.1-4.4,5.3c-1,0.6-2.2,1-3.5,1c-2.8,0-4.6-2.2-4.8-5.2c-0.4-5.9,0.4-28.9-0.2-34.4
		c-0.6-6.4-3.2-12.5-9.6-15c-7.2-2.8-17.6-2.3-23.6,3c-2.6,2.3-4.3,5.1-4.6,8.7c-0.2,1.9-0.4,8.5,6.7,8c5-0.3,6-4.8,6.7-8.1
		c0.3-1.5,0-10,6.1-9.7c5.4,0.3,4.6,6.6,4.7,8.6c0.1,3.4-0.2,5.6-0.3,9c0,1.1-0.3,2.2-0.7,3.1c-0.8,1.9-2.6,2.5-4.4,3.4
		c-1.6,0.8-10.8,4.9-13.9,6.3c-4.8,2.3-7.7,6.9-8.2,12.1c-0.6,7.1,3.3,13.2,10.4,14.9c5.1,1.2,11.9,0.1,15.6-3.8
		c1-1.1,2.3-2.9,2.3-2.9c0.1,0.1,0.1,0.2,0.1,0.2c0.5,1.4,1.2,2.7,2.1,3.8c1.9,2.2,4.5,3,7.3,3.2c2.1,0.1,4.2,0.2,6.2-0.3
		c7.8-1.7,11.7-6,12.8-8.3c0,0.1,0.1,0.3,0.1,0.4c1.1,2.4,2.5,4.7,4.7,6.1c1.2,0.8,2.6,1.2,3.9,1.6c1.7,0.4,3.4,0.7,5.2,0.7
		c10.6-0.1,15.2-7.7,15.9-8.8c0.4,1.4,1.5,3.1,3.3,5.1c3,3.3,8.2,4,12.5,3.4c7.3-0.9,11.3-5.4,13-8.4c0.2,1.3,0.9,2.4,1.6,3.4
		c0.8,1.2,1.7,2,3,2.8c2.5,1.5,5.4,2.4,8.3,2.6c5.8,0.3,11.5-1.9,14.1-7.3c0.5-1.1,1-2.8,1.4-4.2c1.1,2.6,2.8,5,5.1,7
		c4.6,4.2,10.7,6.3,18.2,6.3c7.3,0,13.7-2.4,19.1-7.1c0.2-0.1,0.4-0.3,0.6-0.4c4.1,2.6,9.4,6.2,22.7,4.4c4.3-0.6,3.5-4.8,0.1-4.6
		c-5,0.4-10.2-2.8-15.2-7.5c3.3-3.9,7.4-9.7,9-16.1C308.6,58.7,318.7,60.4,318.8,56.3z M312.8,55.9c0.3,0,0.7,0.1,0.2,0.2
		c-1.8,0.6-6.5,2.5-8.4,7.3c0-1-0.1-2.1-0.3-3.2C304.7,59.5,306.7,56,312.8,55.9z M125.5,89.6c-2,2.5-6.9,3.6-9.8,1.4
		c-5.5-4.2-4.7-13.2,1.3-17.9c1.5-1.1,8.6-5.5,10.5-6.6l0.2,15.7C127.6,84.8,127.1,87.6,125.5,89.6z M266,28c2.8-4.2,9-4.1,12-0.7
		c2.1,2.4,2.9,5.9,2.5,9.1c-0.8,6-5.2,10.5-9.7,14.1c0.1,0-3.1-5.6-3.3-6.1C264.9,39.5,262.6,33.1,266,28z M270.2,92.3
		c-4.5,0-8.3-1.5-11.2-4.5c-2.9-3-4.4-6.9-4.4-11.7c0-6.9,3.1-12.3,9.2-16.1c6.3,10.1,12.7,19.2,19.2,27.3
		C279,90.6,274.7,92.3,270.2,92.3z"/>
	<path d="M472.3,65.2c-0.2-3.7-0.9-7.3-2-10.8c-1.7-5.3-4.6-10.3-9-13.8c-6.2-4.9-16.6-6.6-21.8,0.5v-41h-20
		c0,0,0,0-0.1,0c-1.1,0-2,0.9-2,2s0.9,2,2,2c0,0,0,0,0.1,0h5l-0.1,61.8c0,5,0.4,10.2-0.3,15.2c-0.6,4-2.2,8.6-6.1,10.6
		c-1.8,1-4,1.4-5.9,0.3c-1.6-0.9-2.7-2.5-2.8-4.3V41.6l0,0v-4l0,0l0,0h-0.1h-19.1c-1.1,0-2,0.9-2,2s0.9,2,2,2h5.2h-0.1v33
		c0,0-0.2,3.9-0.5,5.7c-0.5,3.3-2,6.1-4.7,8.3c-0.5,0.4-1,0.7-1.5,0.9c-3.9,1.5-9.5-0.8-9.5-7.6c0-14.4,0-44.2,0-44.2h-19.3
		c-1.1,0.1-1.9,0.9-1.9,2s0.8,1.9,1.9,2h5.2c0,5.5,0,10.9,0,16.4c0,4.8,0,9.7,0,14.6c0,4.6-0.3,9.4,0.7,13.9
		c3.3,15.2,23.6,13.8,30.7,2.6c0.5,1.4,1.6,3.2,3.3,5c2.7,3,7,3.9,10.9,3.6c4.5-0.4,8.7-2,11.9-5.1c0.8-0.8,1.6-1.7,2.3-2.6
		c0.9-1.3,1.6-2.8,1.5-2.9c0.6,1.4,1.9,2.8,2.9,3.9c1.2,1.4,2.6,2.6,4.1,3.7c8.2,5.6,21.6,3.9,28.9-2.3c3.4-2.9,5.8-6.7,7.4-10.9
		C471.7,76.3,472.6,70.7,472.3,65.2z M456.4,85.8c-4.8,10.5-14.2,7.1-16.5,0.5c-1.4-4.1-1.2-10-1.2-12c0-5.4,0-13.8,0.1-22.5
		c2.2-11.9,12.2-11.5,15.4-8.1c4.5,4.9,5.5,11.5,5.5,22.3C459.8,74.4,457.9,81.7,456.4,85.8z"/>
</g>
</svg>
